# xmcd CD database file
#
# Track frame offsets:
#	150
#	17530
#	34730
#	50705
#	77261
#	92514
#	111266
#	131581
#	151695
#	161633
#	178738
#
# Disc length: 2637 seconds
#
# Revision: 0
# Processed by: cddbd v1.5.2PL0 Copyright (c) Steve Scherf et al.
# Submitted via: CDex 1.50beta10
#
DISCID=7b0a4b0b
DTITLE=Skunk Anansie - Stoosh
DYEAR=1996
DGENRE=Rhythmic Soul
TTITLE0=Yes It's Fucking Political
TTITLE1=All I Want
TTITLE2=She's My Heroine
TTITLE3=Infidelity
TTITLE4=Hedonism
TTITLE5=Twisted
TTITLE6=We Love Your Apathy
TTITLE7=Brazen
TTITLE8=Pickin' On Me
TTITLE9=Milk Is My Sugar
TTITLE10=Glorious Pop Song
EXTD=YEAR: 1996
EXTT0=
EXTT1=
EXTT2=
EXTT3=
EXTT4=
EXTT5=
EXTT6=
EXTT7=
EXTT8=
EXTT9=
EXTT10=
PLAYORDER=
